<svg width="120" height="120" viewBox="0 0 120 120" fill="none" xmlns="http://www.w3.org/2000/svg">
<path d="M71.5722 38.6116C72.4275 43.6363 76.3637 47.5725 81.3884 48.4278L115.071 54.161C117.918 54.6455 120 57.1123 120 60C120 62.8877 117.918 65.3544 115.071 65.839L81.3884 71.5722C76.3637 72.4275 72.4275 76.3637 71.5722 81.3884L65.839 115.071C65.3544 117.918 62.8877 120 60 120C57.1123 120 54.6455 117.918 54.161 115.071L48.4278 81.3884C47.5725 76.3637 43.6363 72.4275 38.6116 71.5722L4.9291 65.839C2.08238 65.3544 0 62.8877 0 60C0 57.1123 2.08239 54.6455 4.92911 54.161L38.6116 48.4278C43.6363 47.5725 47.5725 43.6363 48.4278 38.6116L54.161 4.9291C54.6455 2.08238 57.1123 0 60 0C62.8877 0 65.3544 2.08239 65.839 4.92911L71.5722 38.6116Z" fill="white"/>
</svg>
