<svg width="32" height="32" viewBox="0 0 32 32" fill="none" xmlns="http://www.w3.org/2000/svg">
<path d="M13.6943 1.95697C14.1241 -0.652322 17.8759 -0.652322 18.3057 1.95697L19.6932 10.3809C19.856 11.3693 20.6307 12.144 21.6191 12.3068L30.043 13.6943C32.6523 14.1241 32.6523 17.8759 30.043 18.3057L21.6191 19.6932C20.6307 19.856 19.856 20.6307 19.6932 21.6191L18.3057 30.043C17.8759 32.6523 14.1241 32.6523 13.6943 30.043L12.3068 21.6191C12.144 20.6307 11.3693 19.856 10.3809 19.6932L1.95697 18.3057C-0.652322 17.8759 -0.652322 14.1241 1.95697 13.6943L10.3809 12.3068C11.3693 12.144 12.144 11.3693 12.3068 10.3809L13.6943 1.95697Z" fill="white"/>
</svg>
